<svg width="16" height="16" viewBox="0 0 16 16" fill="none" xmlns="http://www.w3.org/2000/svg">
<path d="M8.00004 1.33331C11.6744 1.33331 14.6667 4.32415 14.6667 8.00384C14.6667 11.6758 11.6744 14.6666 8.00004 14.6666C4.32565 14.6666 1.33337 11.6758 1.33337 8.00384C1.33337 4.32415 4.32565 1.33331 8.00004 1.33331ZM7.24071 5.35325C7.09914 5.35325 6.964 5.38541 6.8353 5.44973C6.67443 5.53978 6.54573 5.68128 6.47494 5.84851C6.4299 5.96428 6.35911 6.3116 6.35911 6.31804C6.28833 6.69752 6.24972 7.31498 6.24972 7.99676C6.24972 8.64703 6.28833 9.23812 6.34624 9.62403C6.35268 9.63047 6.42346 10.0614 6.50068 10.2093C6.64225 10.4795 6.91896 10.6467 7.21497 10.6467H7.24071C7.43376 10.6403 7.83917 10.473 7.83917 10.4666C8.52128 10.1836 9.86619 9.30244 10.4067 8.71714L10.4453 8.67854C10.5161 8.60779 10.6062 8.49845 10.6255 8.47272C10.7285 8.33765 10.78 8.17042 10.78 8.00384C10.78 7.81667 10.722 7.64301 10.6127 7.50151C10.5869 7.47578 10.4904 7.36644 10.4003 7.27639C9.87263 6.71038 8.49554 5.78419 7.77482 5.50119C7.66542 5.45681 7.38871 5.35968 7.24071 5.35325Z" fill="#FACD66"/>
</svg>
